<?xml version="1.0" encoding="utf-8"?>
<!-- Generator: Adobe Illustrator 24.3.0, SVG Export Plug-In . SVG Version: 6.00 Build 0)  -->
<svg version="1.1" id="Layer_1" xmlns="http://www.w3.org/2000/svg" xmlns:xlink="http://www.w3.org/1999/xlink" x="0px" y="0px"
	 viewBox="0 0 512 512" style="enable-background:new 0 0 512 512;" xml:space="preserve">
<style type="text/css">
	.st0{fill:url(#XMLID_7_);}
	.st1{fill:#FFFFFF;}
</style>
<g id="XMLID_1_">
	
		<linearGradient id="XMLID_7_" gradientUnits="userSpaceOnUse" x1="-702.3248" y1="798.8811" x2="-701.0438" y2="798.8811" gradientTransform="matrix(-3.3086 405 405 3.3086 -325612.4375 281794.5312)">
		<stop  offset="0" style="stop-color:#BB3119"/>
		<stop  offset="1" style="stop-color:#812112"/>
	</linearGradient>
	<path id="XMLID_3_" class="st0" d="M9.4,6.97c0,0,16.02,16.44,35.3-3.26l2.98,5.67l13.89,0.71l3.26,2.55l1.98-5.24l1.98,0.28
		l3.54,4.82l2.55-2.98L80.7,9.8l3.54,3.83l2.27-2.27l23.25,0.71l5.53-3.26l0.71,3.26l10.35,1.28l4.25-5.81c0,0,6.1,8.79,17.15,9.36
		c11.06,0.71,33.03-0.71,33.03-0.71s6.52,6.1,8.79,0c2.27-6.1,0-3.83,0-3.83l9.07-0.28c0,0,2.98,1.56,5.81-11.06l3.26,6.8l1.56-7.09
		l10.06,0.99c0,0,4.54,3.54,7.8-4.54c0,0,24.66,10.35,35.3,0.28c0,0,6.8,5.81,18.14,4.82c11.34-0.99,29.77,8.79,30.05,23.25
		c0,0,4.25-3.54,21.4-3.26c-0.28-2.27,9.36-10.06,0-16.16c0,0,7.8-7.09,98.8,2.55c0,0,4.82-0.28,0.99-6.8
		c-3.83-6.52,6.1-3.54,3.83-3.83c0,0,2.98,20.13,13.89,7.8c0,0,25.23,12.05,25.51,0.99l4.82,2.98l13.89,0.28
		c0,0-1.56,6.8,14.32,10.06c0,0,5.81,26.22-1.98,30.48c0,0,9.78,46.35,2.98,127.29l-14.88,0.28l5.81,14.88c0,0-14.88,4.54-6.8,18.71
		c0,0,7.8-3.26,2.27,2.27c0,0-1.28,5.81,7.09,7.51c0,0-4.82,20.13,5.24,19.42c0,0-7.8,18.14-1.98,22.4c0,0-4.54,8.36-2.98,23.25
		c0,0-2.27,2.55-6.52-0.99c0,0-8.36,7.51,13.61,5.24l1.98,209.51c0,0-41.39-23.96-57.27-8.08l19.42,1.56l-1.28,2.55l-8.36,0.28
		c0,0,0.28,9.36-6.1,0.71c0,0-15.59,14.6-44.37,0.28c0,0-13.89,5.81-25.23-2.98c0,0-7.8-1.56-9.36,6.1c0,0-12.33-2.27-29.48,2.98
		l1.28-4.54h-2.27l-0.28,5.53c0,0-2.55,2.27-6.1,0.99l2.27-7.8c0,0-5.24-1.56-7.09,3.26l4.25-0.99l-1.28,5.53
		c0,0-10.06,10.06-22.4,1.98l12.62-0.99c0,0,2.27-1.56,1.98-3.83c0,0-49.47-0.71-47.91,3.26l3.83,2.98c0,0-16.44,6.1-23.96,0.99
		l-0.28-4.82l-2.55,0.28l-4.25,6.1c0,0-7.09-12.62-29.2-5.53l1.56,5.53c0,0-7.8-0.71-10.63,2.98l-12.33-20.13
		c0,0-18.14,8.36-27.22-1.28c0,0-1.56,0.28-2.27,4.82c0,0-7.51-0.28-11.06-11.62c0,0-5.81,1.56-3.54,11.62c0,0-6.1-6.8-6.52-10.63
		l-4.54,4.82l3.26,3.83l-1.56,1.98c0,0-6.8-7.09-9.78-5.53l0.28,4.25l-2.98,0.99l-3.83-5.81c0,0-4.25,2.27-4.54,5.53l-1.56-2.27
		l-2.27,1.56h-2.98c0,0-0.99-6.52-2.55-7.51l-1.56,4.25h-5.81v-3.83l-5.53,3.83c0,0-6.52-0.99-7.8,5.24l-3.54-1.56
		c0,0,0.71-6.8-1.98-9.78c0,0-3.54-1.56-4.25,6.8c0,0-4.25,1.56-5.53-4.54h-2.98l0.71,8.08c0,0-1.56-5.81-14.88-4.25
		c0,0-15.17,0.99-17.15-4.25l-1.28,8.08c0,0-0.99-7.09-15.17-0.71l-3.26-0.28l0.28-4.25h-1.98l-1.28,7.09l-3.26-0.71
		c0,0,3.26-5.53-0.28-6.8c0,0-5.24,1.28-5.81,6.52l-3.26-1.56l0.28-7.09L3.3,487.36c0,0,9.78-17.44,2.55-75.13
		c0,0,0.28-20.13,3.54-25.23l7.8-0.28l2.27-55L9.4,330.16c0,0-4.54-20.41-1.98-66.34c0,0,1.56-0.99,6.1,2.98l1.28-2.27l-4.54-2.55
		l0.28-4.82l8.79,4.82l0.71-19.42c0,0-17.86-8.08-6.52-36.85c0,0-15.88-49.9-4.82-166.13l-2.98-1.56c0,0-0.99,7.8-5.81,0.28
		l0.99-26.22l5.81,0.71L6,14.76l-2.27,0.71l0.99,12.05L6.7,27.8L9.4,6.97z"/>
	<path id="XMLID_4_" class="st1" d="M60.29,101.51L184.6,234.19c0,0,9.36-1.28,12.33,6.1c2.98,7.51-1.98,0.99-1.98,0.99l-3.83-2.98
		l50.18,54.43c0,0-6.1-16.87,1.98-1.56c8.08,15.17,20.98,26.22,20.98,26.22l1.98-2.98l-7.51-8.36c0,0-5.53-6.52,2.27-2.27
		l9.78,12.62c0,0-2.27,7.09,5.24,13.32l-1.56-5.24c0,0,6.52,3.54,12.05,14.6l-0.28-4.25l5.53,5.24l-2.27,2.98l51.74,55.42
		c0,0,12.05,28.49,76.69,24.24c0,0,30.76-39.12,33.31-97.81l-42.81-28.78l-24.95-2.27l0.28-4.25l9.36,3.83l3.26,0.28l-5.53-4.54
		l2.55-2.98L187.86,146.31c0,0-12.9,0.71-12.33-7.8l-5.24-0.28l-2.98-2.98l-2.98,2.27l-1.56-1.56l1.98-3.26l-7.94-4.25l3.83,4.82
		l-1.98,0.99l-8.36-8.36l1.98-2.27l-38.27-26.93C114.01,96.69,96.57,77.98,60.29,101.51L60.29,101.51z"/>
	<path id="XMLID_5_" class="st1" d="M99.69,308.75l101.07,97.67l-71.58,22.96l-4.39-2.69c0,0-1.42,6.1-7.94,1.84
		c0,0,2.69,4.68,5.67-3.4c0,0-1.13-2.55-2.69,0l-1.13,2.41l-0.28-4.68l-2.98,1.98l-2.27-0.28l-0.43,4.25l-42.81-31.75
		c0,0-6.1-2.27-1.28-17.01C73.47,365.17,99.69,308.75,99.69,308.75z"/>
	<path id="XMLID_6_" class="st1" d="M404.45,183.3l10.35-66.48l-2.98,0.14l0.28,2.55c0,0-1.28,5.67-2.55,0.71s1.56-6.52,1.56-6.52
		l3.4,0.99l0.14-2.13l-22.54-16.44c0,0-7.94-5.95-23.67-0.99s-64.5,17.29-64.5,17.29l85.05,65.2l1.13-2.27l-4.11-1.98
		c0,0-2.69-3.4,2.41-3.26c5.24,0.14,3.83,9.92,3.83,9.92h4.82l2.69,3.54L404.45,183.3z"/>
</g>
</svg>
