<svg xmlns="http://www.w3.org/2000/svg" shape-rendering="geometricPrecision" text-rendering="geometricPrecision" image-rendering="optimizeQuality" fill-rule="evenodd" clip-rule="evenodd" viewBox="0 0 322 511.21" fill="#E2E8F0">
    <path fill-rule="nonzero" d="M295.27 211.54H26.71c-6.23-.02-12.48-2.18-17.54-6.58-11.12-9.69-12.29-26.57-2.61-37.69L144.3 9.16c.95-1.07 1.99-2.1 3.13-3.03 11.36-9.4 28.19-7.81 37.58 3.55l129.97 157.07a26.65 26.65 0 0 1 7.02 18.06c0 14.76-11.97 26.73-26.73 26.73zM26.71 299.68l268.56-.01c14.76 0 26.73 11.97 26.73 26.73 0 6.96-2.66 13.3-7.02 18.06L185.01 501.53c-9.39 11.36-26.22 12.95-37.58 3.55-1.14-.93-2.18-1.96-3.13-3.03L6.56 343.94c-9.68-11.12-8.51-28 2.61-37.69 5.06-4.4 11.31-6.56 17.54-6.57z"/>
</svg>